<svg class="border shadow-md" viewBox="0 0 981.2 551.925" style="width: 981.2px; height: 551.925px;" xmlns="http://www.w3.org/2000/svg" preserveAspectRatio="none"><rect class="bg" id="bg" x="0" y="0" width="981.2" height="551.925" fill="#000000" data-darkreader-inline-fill="" style="--darkreader-inline-fill: #0d0d0d;"/><g transform="&#10;        translate(-2771.8900000000003&#10;        -1212.7018750000004)&#10;        scale(6.65)&#10;                        "><path d="M812,700Q732,909,529,842.5Q326,776,175.5,633.5Q25,491,162.5,326Q300,161,517.5,114Q735,67,813.5,279Q892,491,812,700Z" fill="#191121" stroke="none" stroke-width="10"/></g><g transform="&#10;        translate(-2609.992&#10;        -1141.8715000000002)&#10;        scale(6.32)&#10;                        "><path d="M812,700Q732,909,529,842.5Q326,776,175.5,633.5Q25,491,162.5,326Q300,161,517.5,114Q735,67,813.5,279Q892,491,812,700Z" fill="#1e122a" stroke="none" stroke-width="10"/></g><g transform="&#10;        translate(-2448.094&#10;        -1071.0411250000002)&#10;        scale(5.99)&#10;                        "><path d="M812,700Q732,909,529,842.5Q326,776,175.5,633.5Q25,491,162.5,326Q300,161,517.5,114Q735,67,813.5,279Q892,491,812,700Z" fill="#231333" stroke="none" stroke-width="10"/></g><g transform="&#10;        translate(-2281.2900000000004&#10;        -998.0643750000003)&#10;        scale(5.65)&#10;                        "><path d="M812,700Q732,909,529,842.5Q326,776,175.5,633.5Q25,491,162.5,326Q300,161,517.5,114Q735,67,813.5,279Q892,491,812,700Z" fill="#28143c" stroke="none" stroke-width="10"/></g><g transform="&#10;        translate(-2119.3920000000003&#10;        -927.2340000000003)&#10;        scale(5.32)&#10;                        "><path d="M812,700Q732,909,529,842.5Q326,776,175.5,633.5Q25,491,162.5,326Q300,161,517.5,114Q735,67,813.5,279Q892,491,812,700Z" fill="#2d1545" stroke="none" stroke-width="10"/></g><g transform="&#10;        translate(-1957.4940000000001&#10;        -856.4036250000003)&#10;        scale(4.99)&#10;                        "><path d="M812,700Q732,909,529,842.5Q326,776,175.5,633.5Q25,491,162.5,326Q300,161,517.5,114Q735,67,813.5,279Q892,491,812,700Z" fill="#32164e" stroke="none" stroke-width="10"/></g><g transform="&#10;        translate(-1795.5960000000002&#10;        -785.5732500000001)&#10;        scale(4.66)&#10;                        "><path d="M812,700Q732,909,529,842.5Q326,776,175.5,633.5Q25,491,162.5,326Q300,161,517.5,114Q735,67,813.5,279Q892,491,812,700Z" fill="#371757" stroke="none" stroke-width="10"/></g><g transform="&#10;        translate(-1628.7920000000001&#10;        -712.5965000000002)&#10;        scale(4.32)&#10;                        "><path d="M812,700Q732,909,529,842.5Q326,776,175.5,633.5Q25,491,162.5,326Q300,161,517.5,114Q735,67,813.5,279Q892,491,812,700Z" fill="#3c1860" stroke="none" stroke-width="10"/></g><g transform="&#10;        translate(-1466.8940000000002&#10;        -641.7661250000002)&#10;        scale(3.99)&#10;                        "><path d="M812,700Q732,909,529,842.5Q326,776,175.5,633.5Q25,491,162.5,326Q300,161,517.5,114Q735,67,813.5,279Q892,491,812,700Z" fill="#411969" stroke="none" stroke-width="10"/></g><g transform="&#10;        translate(-1304.996&#10;        -570.9357500000001)&#10;        scale(3.66)&#10;                        "><path d="M812,700Q732,909,529,842.5Q326,776,175.5,633.5Q25,491,162.5,326Q300,161,517.5,114Q735,67,813.5,279Q892,491,812,700Z" fill="#461a72" stroke="none" stroke-width="10"/></g><g transform="&#10;        translate(-1143.0980000000002&#10;        -500.1053750000001)&#10;        scale(3.33)&#10;                        "><path d="M812,700Q732,909,529,842.5Q326,776,175.5,633.5Q25,491,162.5,326Q300,161,517.5,114Q735,67,813.5,279Q892,491,812,700Z" fill="#4b1b7b" stroke="none" stroke-width="10"/></g><g transform="&#10;        translate(-976.2940000000001&#10;        -427.1286250000001)&#10;        scale(2.99)&#10;                        "><path d="M812,700Q732,909,529,842.5Q326,776,175.5,633.5Q25,491,162.5,326Q300,161,517.5,114Q735,67,813.5,279Q892,491,812,700Z" fill="#501c84" stroke="none" stroke-width="10"/></g><g transform="&#10;        translate(-814.3960000000001&#10;        -356.2982500000001)&#10;        scale(2.66)&#10;                        "><path d="M812,700Q732,909,529,842.5Q326,776,175.5,633.5Q25,491,162.5,326Q300,161,517.5,114Q735,67,813.5,279Q892,491,812,700Z" fill="#551d8d" stroke="none" stroke-width="10"/></g><g transform="&#10;        translate(-652.498&#10;        -285.46787500000005)&#10;        scale(2.33)&#10;                        "><path d="M812,700Q732,909,529,842.5Q326,776,175.5,633.5Q25,491,162.5,326Q300,161,517.5,114Q735,67,813.5,279Q892,491,812,700Z" fill="#5a1e96" stroke="none" stroke-width="10"/></g><g transform="&#10;        translate(-490.6&#10;        -214.63750000000005)&#10;        scale(2.00)&#10;                        "><path d="M812,700Q732,909,529,842.5Q326,776,175.5,633.5Q25,491,162.5,326Q300,161,517.5,114Q735,67,813.5,279Q892,491,812,700Z" fill="#5f1f9f" stroke="none" stroke-width="10"/></g><g transform="&#10;        translate(-323.796&#10;        -141.66075)&#10;        scale(1.66)&#10;                        "><path d="M812,700Q732,909,529,842.5Q326,776,175.5,633.5Q25,491,162.5,326Q300,161,517.5,114Q735,67,813.5,279Q892,491,812,700Z" fill="#6420a8" stroke="none" stroke-width="10"/></g><g transform="&#10;        translate(-161.89800000000005&#10;        -70.83037500000003)&#10;        scale(1.33)&#10;                        "><path d="M812,700Q732,909,529,842.5Q326,776,175.5,633.5Q25,491,162.5,326Q300,161,517.5,114Q735,67,813.5,279Q892,491,812,700Z" fill="#6921b1" stroke="none" stroke-width="10"/></g><g transform="&#10;        translate(0&#10;        0)&#10;        scale(1.00)&#10;                        "><path d="M812,700Q732,909,529,842.5Q326,776,175.5,633.5Q25,491,162.5,326Q300,161,517.5,114Q735,67,813.5,279Q892,491,812,700Z" fill="#6e22ba" stroke="none" stroke-width="10"/></g><g transform="&#10;        translate(161.898&#10;        70.830375)&#10;        scale(0.67)&#10;                        "><path d="M812,700Q732,909,529,842.5Q326,776,175.5,633.5Q25,491,162.5,326Q300,161,517.5,114Q735,67,813.5,279Q892,491,812,700Z" fill="#7323c3" stroke="none" stroke-width="10"/></g><g transform="&#10;        translate(328.702&#10;        143.807125)&#10;        scale(0.33)&#10;                        "><path d="M812,700Q732,909,529,842.5Q326,776,175.5,633.5Q25,491,162.5,326Q300,161,517.5,114Q735,67,813.5,279Q892,491,812,700Z" fill="#7824cc" stroke="none" stroke-width="10"/></g></svg>