<svg width="718" height="168" viewBox="0 0 718 168" fill="none" xmlns="http://www.w3.org/2000/svg">
<path d="M48.1824 108.435C51.6404 108.435 54.4917 107.859 56.7364 106.706C58.9811 105.493 60.4977 104.522 61.2864 103.794L73.9354 122.54C72.9647 123.329 71.2964 124.36 68.9304 125.634C66.5644 126.847 63.5917 127.909 60.0124 128.819C56.4937 129.729 52.4594 130.184 47.9094 130.184C39.3554 130.184 31.8327 128.576 25.3414 125.361C18.8501 122.085 13.7844 117.474 10.1444 111.529C6.56506 105.584 4.7754 98.607 4.7754 90.599C4.7754 82.5303 6.56506 75.5537 10.1444 69.669C13.7844 63.7843 18.8501 59.2343 25.3414 56.019C31.8327 52.743 39.3554 51.105 47.9094 51.105C52.3987 51.105 56.4027 51.5903 59.9214 52.561C63.5007 53.471 66.5037 54.5327 68.9304 55.746C71.3571 56.8987 73.0557 57.8997 74.0264 58.749L61.1044 77.677C60.6797 77.2523 59.8911 76.6457 58.7384 75.857C57.6464 75.0683 56.2207 74.3707 54.4614 73.764C52.7021 73.1573 50.6091 72.854 48.1824 72.854C45.2097 72.854 42.4191 73.6123 39.8104 75.129C37.2624 76.6457 35.1997 78.7387 33.6224 81.408C32.0451 84.0773 31.2564 87.141 31.2564 90.599C31.2564 94.057 32.0451 97.151 33.6224 99.881C35.1997 102.55 37.2624 104.643 39.8104 106.16C42.4191 107.677 45.2097 108.435 48.1824 108.435ZM115.938 130.184C107.748 130.184 100.468 128.516 94.0976 125.179C87.7883 121.782 82.8136 117.141 79.1736 111.256C75.5943 105.311 73.8046 98.516 73.8046 90.872C73.8046 83.228 75.5943 76.4333 79.1736 70.488C82.8136 64.482 87.7883 59.75 94.0976 56.292C100.468 52.834 107.748 51.105 115.938 51.105C124.128 51.105 131.347 52.834 137.596 56.292C143.844 59.75 148.728 64.482 152.247 70.488C155.765 76.4333 157.525 83.228 157.525 90.872C157.525 98.516 155.765 105.311 152.247 111.256C148.728 117.141 143.844 121.782 137.596 125.179C131.347 128.516 124.128 130.184 115.938 130.184ZM115.938 107.434C119.092 107.434 121.822 106.736 124.128 105.341C126.433 103.946 128.223 101.974 129.497 99.426C130.771 96.878 131.408 93.9963 131.408 90.781C131.408 87.505 130.771 84.593 129.497 82.045C128.223 79.497 126.433 77.495 124.128 76.039C121.822 74.583 119.092 73.855 115.938 73.855C112.783 73.855 110.023 74.583 107.657 76.039C105.351 77.495 103.531 79.497 102.197 82.045C100.923 84.593 100.286 87.505 100.286 90.781C100.286 93.9963 100.923 96.878 102.197 99.426C103.531 101.974 105.351 103.946 107.657 105.341C110.023 106.736 112.783 107.434 115.938 107.434ZM165.551 128V53.289H193.215V128H165.551ZM179.747 37.91C175.379 37.91 171.678 36.3933 168.645 33.36C165.612 30.266 164.095 26.5957 164.095 22.349C164.095 18.1023 165.612 14.432 168.645 11.338C171.739 8.18332 175.44 6.60599 179.747 6.60599C182.598 6.60599 185.207 7.33399 187.573 8.78999C189.939 10.1853 191.85 12.066 193.306 14.432C194.762 16.798 195.49 19.437 195.49 22.349C195.49 26.5957 193.943 30.266 190.849 33.36C187.755 36.3933 184.054 37.91 179.747 37.91ZM256.409 51.105C261.626 51.105 266.722 52.1667 271.697 54.29C276.672 56.4133 280.767 59.7803 283.982 64.391C287.197 68.941 288.805 74.947 288.805 82.409V128H261.05V86.959C261.05 81.6203 259.776 77.6163 257.228 74.947C254.68 72.217 251.343 70.852 247.218 70.852C244.488 70.852 241.91 71.58 239.483 73.036C237.117 74.4313 235.176 76.4333 233.659 79.042C232.203 81.59 231.475 84.5323 231.475 87.869V128H203.811V53.289H231.475V64.3C232.203 62.298 233.72 60.296 236.025 58.294C238.391 56.2313 241.333 54.5327 244.852 53.198C248.431 51.8027 252.284 51.105 256.409 51.105Z" fill="white"/>
<path d="M367.203 108.435C370.661 108.435 373.513 107.859 375.757 106.706C378.002 105.493 379.519 104.522 380.307 103.794L392.956 122.54C391.986 123.329 390.317 124.36 387.951 125.634C385.585 126.847 382.613 127.909 379.033 128.819C375.515 129.729 371.48 130.184 366.93 130.184C358.376 130.184 350.854 128.576 344.362 125.361C337.871 122.085 332.805 117.474 329.165 111.529C325.586 105.584 323.796 98.607 323.796 90.599C323.796 82.5303 325.586 75.5537 329.165 69.669C332.805 63.7843 337.871 59.2343 344.362 56.019C350.854 52.743 358.376 51.105 366.93 51.105C371.42 51.105 375.424 51.5903 378.942 52.561C382.522 53.471 385.525 54.5327 387.951 55.746C390.378 56.8987 392.077 57.8997 393.047 58.749L380.125 77.677C379.701 77.2523 378.912 76.6457 377.759 75.857C376.667 75.0683 375.242 74.3707 373.482 73.764C371.723 73.1573 369.63 72.854 367.203 72.854C364.231 72.854 361.44 73.6123 358.831 75.129C356.283 76.6457 354.221 78.7387 352.643 81.408C351.066 84.0773 350.277 87.141 350.277 90.599C350.277 94.057 351.066 97.151 352.643 99.881C354.221 102.55 356.283 104.643 358.831 106.16C361.44 107.677 364.231 108.435 367.203 108.435ZM422.218 128H394.554V53.289H422.218V64.846H421.763C422.249 63.4507 423.432 61.6913 425.312 59.568C427.193 57.384 429.832 55.4427 433.229 53.744C436.627 51.9847 440.782 51.105 445.696 51.105C449.154 51.105 452.339 51.651 455.251 52.743C458.163 53.7743 460.287 54.7753 461.621 55.746L450.883 78.223C450.034 77.1917 448.517 76.13 446.333 75.038C444.21 73.8853 441.541 73.309 438.325 73.309C434.625 73.309 431.561 74.2493 429.134 76.13C426.768 78.0107 425.009 80.2857 423.856 82.955C422.764 85.6243 422.218 88.142 422.218 90.508V128ZM517.813 128V115.897C517.267 117.11 515.871 118.87 513.627 121.175C511.443 123.48 508.531 125.573 504.891 127.454C501.251 129.274 497.004 130.184 492.151 130.184C484.871 130.184 478.501 128.425 473.041 124.906C467.581 121.327 463.334 116.564 460.301 110.619C457.267 104.613 455.751 97.97 455.751 90.69C455.751 83.41 457.267 76.7973 460.301 70.852C463.334 64.846 467.581 60.0533 473.041 56.474C478.501 52.8947 484.871 51.105 492.151 51.105C496.822 51.105 500.917 51.8633 504.436 53.38C507.954 54.836 510.806 56.5953 512.99 58.658C515.174 60.66 516.69 62.5103 517.54 64.209V53.289H545.022V128H517.813ZM482.869 90.69C482.869 94.0873 483.657 97.151 485.235 99.881C486.812 102.55 488.905 104.643 491.514 106.16C494.183 107.677 497.125 108.435 500.341 108.435C503.677 108.435 506.62 107.677 509.168 106.16C511.716 104.643 513.718 102.55 515.174 99.881C516.69 97.151 517.449 94.0873 517.449 90.69C517.449 87.2927 516.69 84.2593 515.174 81.59C513.718 78.86 511.716 76.7367 509.168 75.22C506.62 73.6427 503.677 72.854 500.341 72.854C497.125 72.854 494.183 73.6427 491.514 75.22C488.905 76.7367 486.812 78.86 485.235 81.59C483.657 84.2593 482.869 87.2927 482.869 90.69ZM548.852 53.289H561.228V33.542C561.228 26.262 562.775 20.1953 565.869 15.342C568.963 10.4887 572.967 6.81833 577.881 4.33099C582.795 1.84366 587.891 0.599991 593.169 0.599991C599.721 0.599991 604.696 1.47966 608.093 3.239C611.551 4.99833 613.735 6.30266 614.645 7.15199L604.089 27.445C603.786 26.9597 603.027 26.262 601.814 25.352C600.601 24.442 598.993 23.987 596.991 23.987C595.717 23.987 594.443 24.3207 593.169 24.988C591.895 25.6553 590.833 26.8383 589.984 28.537C589.195 30.2357 588.801 32.723 588.801 35.999V53.289H607.274V76.039H588.801V128H561.228V76.039H548.852V53.289ZM605.097 53.289H617.837V22.622H645.228V53.289H661.972V76.039H645.228V96.878C645.228 99.972 645.683 102.49 646.593 104.431C647.503 106.312 649.172 107.252 651.598 107.252C653.236 107.252 654.632 106.888 655.784 106.16C656.937 105.432 657.635 104.947 657.877 104.704L667.341 124.36C666.917 124.724 665.582 125.391 663.337 126.362C661.153 127.333 658.363 128.212 654.965 129.001C651.568 129.79 647.776 130.184 643.59 130.184C636.128 130.184 629.971 128.091 625.117 123.905C620.264 119.658 617.837 113.137 617.837 104.34V76.039H605.097V53.289ZM688.868 130.184C684.379 130.184 680.496 128.576 677.22 125.361C674.005 122.085 672.397 118.202 672.397 113.713C672.397 109.102 674.005 105.189 677.22 101.974C680.496 98.698 684.379 97.06 688.868 97.06C693.479 97.06 697.392 98.698 700.607 101.974C703.823 105.189 705.43 109.102 705.43 113.713C705.43 118.202 703.823 122.085 700.607 125.361C697.392 128.576 693.479 130.184 688.868 130.184Z" fill="white"/>
</svg>
